<?xml version="1.0" encoding="UTF-8"?>
<svg xmlns="http://www.w3.org/2000/svg" xmlns:xlink="http://www.w3.org/1999/xlink" width="64px" height="64px" viewBox="0 0 64 64" version="1.1">
<defs>
<linearGradient id="linear0" gradientUnits="userSpaceOnUse" x1="32" y1="4" x2="32" y2="64.81" >
<stop offset="0" style="stop-color:rgb(11.372549%,95.686275%,48.627451%);stop-opacity:1;"/>
<stop offset="0.31" style="stop-color:rgb(7.058824%,87.45098%,38.823529%);stop-opacity:1;"/>
<stop offset="0.75" style="stop-color:rgb(1.960784%,76.862745%,26.27451%);stop-opacity:1;"/>
<stop offset="1" style="stop-color:rgb(0%,72.941176%,21.568627%);stop-opacity:1;"/>
</linearGradient>
</defs>
<g id="surface1">
<path style=" stroke:none;fill-rule:nonzero;fill:url(#linear0);" d="M 11.199219 0 L 52.800781 0 C 58.984375 0 64 5.015625 64 11.199219 L 64 52.800781 C 64 58.984375 58.984375 64 52.800781 64 L 11.199219 64 C 5.015625 64 0 58.984375 0 52.800781 L 0 11.199219 C 0 5.015625 5.015625 0 11.199219 0 Z M 11.199219 0 "/>
<path style=" stroke:none;fill-rule:nonzero;fill:rgb(100%,100%,100%);fill-opacity:1;" d="M 27.421875 21.378906 L 29.421875 26.808594 C 29.519531 27.058594 29.480469 27.335938 29.320312 27.550781 C 28.890625 28.171875 28.394531 28.746094 27.839844 29.261719 C 27.503906 29.523438 27.433594 30.003906 27.679688 30.351562 C 28.910156 32 32.101562 36 36.25 37.429688 C 36.578125 37.539062 36.9375 37.421875 37.140625 37.140625 L 38.800781 34.929688 C 39.035156 34.621094 39.453125 34.523438 39.800781 34.699219 L 45 37.300781 C 45.375 37.476562 45.550781 37.914062 45.398438 38.300781 C 44.828125 39.921875 43.039062 43.871094 39.210938 43.230469 C 34.203125 42.460938 29.644531 39.890625 26.398438 36 C 23.261719 32.078125 17.058594 22 26.589844 20.859375 C 26.953125 20.824219 27.292969 21.039062 27.421875 21.378906 Z M 27.421875 21.378906 "/>
<path style=" stroke:none;fill-rule:nonzero;fill:rgb(100%,100%,100%);fill-opacity:1;" d="M 33.601562 54.800781 C 29.417969 54.804688 25.300781 53.726562 21.660156 51.671875 L 9.660156 54.75 L 14.070312 44.839844 C 11.402344 41.089844 9.980469 36.601562 10 32 C 10 19.429688 20.589844 9.199219 33.601562 9.199219 C 46.609375 9.199219 57.199219 19.429688 57.199219 32 C 57.199219 44.570312 46.609375 54.800781 33.601562 54.800781 Z M 22.289062 47.371094 L 23.019531 47.820312 C 26.199219 49.78125 29.863281 50.820312 33.601562 50.820312 C 44.410156 50.820312 53.199219 42.390625 53.199219 32.019531 C 53.199219 21.648438 44.410156 13.199219 33.601562 13.199219 C 22.789062 13.199219 14 21.628906 14 32 C 14.003906 36.125 15.414062 40.125 18 43.339844 L 18.75 44.289062 L 15.140625 50.410156 Z M 22.289062 47.371094 "/>
</g>
</svg>
