<?xml version="1.0" encoding="UTF-8"?>
<svg xmlns="http://www.w3.org/2000/svg" xmlns:xlink="http://www.w3.org/1999/xlink" width="64px" height="64px" viewBox="0 0 64 64" version="1.1">
<g id="surface1">
<path style=" stroke:none;fill-rule:nonzero;fill:rgb(44.705882%,53.72549%,85.490196%);fill-opacity:1;" d="M 9.601562 0 L 54.398438 0 C 59.703125 0 64 4.296875 64 9.601562 L 64 54.398438 C 64 59.703125 59.703125 64 54.398438 64 L 9.601562 64 C 4.296875 64 0 59.703125 0 54.398438 L 0 9.601562 C 0 4.296875 4.296875 0 9.601562 0 Z M 9.601562 0 "/>
<path style=" stroke:none;fill-rule:nonzero;fill:rgb(100%,100%,100%);fill-opacity:1;" d="M 43.25 49 L 40.625 45.875 C 45.75 44.5 47.75 41 47.75 41 C 41.25 47.125 23.5 47.375 16.625 41 C 16.625 41 18.375 44.25 23.625 45.875 L 20.75 49 C 12 48.875 8.625 43 8.625 43 C 8.625 30 14.375 19.625 14.375 19.625 C 20.25 15.5 25.625 15.5 25.625 15.5 L 26 16 C 18.75 18 15.625 21.25 15.625 21.25 C 24.125 15.5 41.625 16 48.5 21.25 C 48.625 21.125 44.375 17.75 37.75 16 L 38.375 15.5 C 38.375 15.5 43.75 15.5 49.625 19.625 C 49.625 19.625 55.375 30 55.375 43 C 55.375 43 52 48.875 43.25 49 Z M 43.25 49 "/>
<path style=" stroke:none;fill-rule:nonzero;fill:rgb(44.705882%,53.72549%,85.490196%);fill-opacity:1;" d="M 28.625 34.875 C 28.625 32.457031 26.777344 30.5 24.5 30.5 C 22.222656 30.5 20.375 32.457031 20.375 34.875 C 20.375 37.292969 22.222656 39.25 24.5 39.25 C 26.777344 39.25 28.625 37.292969 28.625 34.875 Z M 28.625 34.875 "/>
<path style=" stroke:none;fill-rule:nonzero;fill:rgb(44.705882%,53.72549%,85.490196%);fill-opacity:1;" d="M 43.125 34.875 C 43.125 32.457031 41.277344 30.5 39 30.5 C 36.722656 30.5 34.875 32.457031 34.875 34.875 C 34.875 37.292969 36.722656 39.25 39 39.25 C 41.277344 39.25 43.125 37.292969 43.125 34.875 Z M 43.125 34.875 "/>
</g>
</svg>
