<?xml version="1.0" encoding="UTF-8"?>
<svg xmlns="http://www.w3.org/2000/svg" xmlns:xlink="http://www.w3.org/1999/xlink" width="64px" height="64px" viewBox="0 0 64 64" version="1.1">
<g id="surface1">
<path style=" stroke:none;fill-rule:nonzero;fill:rgb(91.764706%,26.666667%,20.784314%);fill-opacity:1;" d="M 33.160156 38.214844 L 7.78125 22.0625 C 5.050781 20.257812 4.269531 16.597656 6.027344 13.835938 C 7.785156 11.074219 11.429688 10.230469 14.222656 11.941406 L 32.84375 23.789062 L 49.558594 12.085938 C 52.273438 10.246094 55.960938 10.925781 57.839844 13.613281 C 59.722656 16.296875 59.097656 19.996094 56.441406 21.914062 Z M 33.160156 38.214844 "/>
<path style=" stroke:none;fill-rule:nonzero;fill:rgb(0%,67.45098%,27.843137%);fill-opacity:1;" d="M 55 53 L 47 53 L 47 17 C 47 13.6875 49.6875 11 53 11 C 56.3125 11 59 13.6875 59 17 L 59 49 C 59 51.210938 57.210938 53 55 53 Z M 55 53 "/>
<path style=" stroke:none;fill-rule:nonzero;fill:rgb(100%,72.941176%,0%);fill-opacity:1;" d="M 58.914062 16.132812 C 58.894531 16.011719 58.894531 15.886719 58.871094 15.769531 C 58.832031 15.585938 58.761719 15.414062 58.707031 15.238281 C 58.652344 15.035156 58.589844 14.835938 58.515625 14.640625 C 58.476562 14.542969 58.414062 14.460938 58.367188 14.367188 C 58.242188 14.101562 58.097656 13.84375 57.9375 13.601562 C 57.855469 13.484375 57.757812 13.386719 57.667969 13.273438 C 57.515625 13.074219 57.351562 12.882812 57.179688 12.703125 C 57.042969 12.574219 56.894531 12.46875 56.75 12.351562 C 56.59375 12.21875 56.433594 12.09375 56.269531 11.980469 C 56.109375 11.875 55.9375 11.796875 55.769531 11.707031 C 55.59375 11.617188 55.417969 11.515625 55.234375 11.441406 C 55.058594 11.371094 54.867188 11.324219 54.679688 11.269531 C 54.496094 11.214844 54.3125 11.148438 54.121094 11.113281 C 53.882812 11.078125 53.644531 11.050781 53.40625 11.042969 C 53.253906 11.03125 53.105469 11.003906 52.953125 11.007812 C 52.667969 11.015625 52.386719 11.042969 52.109375 11.089844 C 51.996094 11.109375 51.882812 11.105469 51.769531 11.128906 C 51.390625 11.246094 51.015625 11.363281 50.640625 11.484375 C 50.539062 11.53125 50.449219 11.59375 50.347656 11.644531 C 48.273438 12.613281 46.960938 14.710938 47 17 L 47 28.523438 L 56.441406 21.914062 C 58.332031 20.644531 59.300781 18.378906 58.910156 16.128906 Z M 58.914062 16.132812 "/>
<path style=" stroke:none;fill-rule:nonzero;fill:rgb(25.882353%,52.156863%,95.686275%);fill-opacity:1;" d="M 11 11 C 14.3125 11 17 13.6875 17 17 L 17 53 L 9 53 C 6.789062 53 5 51.210938 5 49 L 5 17 C 5 13.6875 7.6875 11 11 11 Z M 11 11 "/>
<path style=" stroke:none;fill-rule:nonzero;fill:rgb(77.254902%,14.509804%,15.686275%);fill-opacity:1;" d="M 5.085938 16.132812 C 5.105469 16.011719 5.105469 15.886719 5.128906 15.769531 C 5.167969 15.585938 5.238281 15.414062 5.292969 15.238281 C 5.347656 15.035156 5.410156 14.835938 5.484375 14.640625 C 5.523438 14.546875 5.585938 14.460938 5.632812 14.371094 C 5.757812 14.101562 5.902344 13.84375 6.0625 13.601562 C 6.144531 13.484375 6.242188 13.386719 6.332031 13.273438 C 6.484375 13.074219 6.648438 12.882812 6.824219 12.703125 C 6.957031 12.574219 7.105469 12.46875 7.25 12.351562 C 7.40625 12.21875 7.566406 12.09375 7.730469 11.980469 C 7.890625 11.875 8.0625 11.796875 8.230469 11.707031 C 8.40625 11.609375 8.582031 11.519531 8.765625 11.441406 C 8.945312 11.367188 9.132812 11.324219 9.320312 11.269531 C 9.503906 11.214844 9.691406 11.148438 9.878906 11.113281 C 10.117188 11.074219 10.355469 11.050781 10.59375 11.039062 C 10.746094 11.03125 10.898438 11.003906 11.050781 11.003906 C 11.332031 11.011719 11.613281 11.042969 11.894531 11.089844 C 12.003906 11.105469 12.117188 11.105469 12.230469 11.128906 C 12.425781 11.175781 12.617188 11.238281 12.804688 11.304688 C 12.992188 11.355469 13.175781 11.414062 13.359375 11.484375 C 13.460938 11.527344 13.554688 11.59375 13.652344 11.644531 C 13.910156 11.765625 14.164062 11.90625 14.402344 12.0625 C 16.027344 13.179688 17 15.027344 17 17 L 17 28.523438 L 7.558594 21.914062 C 5.667969 20.644531 4.699219 18.378906 5.085938 16.132812 Z M 5.085938 16.132812 "/>
</g>
</svg>
