<?xml version="1.0" encoding="UTF-8"?>
<svg xmlns="http://www.w3.org/2000/svg" xmlns:xlink="http://www.w3.org/1999/xlink" width="64px" height="64px" viewBox="0 0 64 64" version="1.1">
<g id="surface1">
<path style=" stroke:none;fill-rule:nonzero;fill:rgb(21.568627%,68.235294%,88.627451%);fill-opacity:1;" d="M 9.601562 0 L 54.398438 0 C 59.703125 0 64 4.296875 64 9.601562 L 64 54.398438 C 64 59.703125 59.703125 64 54.398438 64 L 9.601562 64 C 4.296875 64 0 59.703125 0 54.398438 L 0 9.601562 C 0 4.296875 4.296875 0 9.601562 0 Z M 9.601562 0 "/>
<path style=" stroke:none;fill-rule:nonzero;fill:rgb(78.431373%,85.490196%,91.764706%);fill-opacity:1;" d="M 24.875 50.5 C 23.5 50.5 23.625 50 23.25 48.75 L 19.25 35.625 L 49.875 17.625 "/>
<path style=" stroke:none;fill-rule:nonzero;fill:rgb(66.27451%,78.823529%,86.666667%);fill-opacity:1;" d="M 24.875 50.5 C 25.75 50.5 26.25 50 26.875 49.5 L 32.5 44.125 L 25.5 39.875 "/>
<path style=" stroke:none;fill-rule:nonzero;fill:rgb(96.470588%,98.431373%,99.607843%);fill-opacity:1;" d="M 25.5 39.875 L 42.375 52.25 C 44.125 53.375 45.625 52.75 46.125 50.5 L 53 18.25 C 53.625 15.5 51.875 14.25 50 15.125 L 9.875 30.625 C 7.25 31.625 7.25 33.25 9.375 33.875 L 19.75 37.125 L 43.5 22 C 44.625 21.375 45.625 21.625 44.875 22.5 "/>
</g>
</svg>
