<?xml version="1.0" encoding="UTF-8"?>
<svg xmlns="http://www.w3.org/2000/svg" xmlns:xlink="http://www.w3.org/1999/xlink" width="64px" height="64px" viewBox="0 0 64 64" version="1.1">
<g id="surface1">
<path style=" stroke:none;fill-rule:nonzero;fill:rgb(26.666667%,53.72549%,78.431373%);fill-opacity:1;" d="M 11.199219 0 L 52.800781 0 C 58.984375 0 64 5.015625 64 11.199219 L 64 52.800781 C 64 58.984375 58.984375 64 52.800781 64 L 11.199219 64 C 5.015625 64 0 58.984375 0 52.800781 L 0 11.199219 C 0 5.015625 5.015625 0 11.199219 0 Z M 11.199219 0 "/>
<path style=" stroke:none;fill-rule:nonzero;fill:rgb(100%,100%,100%);fill-opacity:1;" d="M 9.621094 19.769531 L 17.300781 19.769531 C 17.628906 19.769531 17.921875 19.972656 18.039062 20.28125 C 18.890625 22.46875 22.421875 31.039062 25.648438 31.738281 C 28.050781 31.738281 27.199219 20.339844 24.148438 20.339844 C 23.351562 20.339844 25.570312 18.921875 25.71875 18.859375 C 28.554688 18.082031 31.546875 18.082031 34.378906 18.859375 C 35.910156 19.5 36.171875 21.289062 36.210938 22.808594 C 36.25 24.328125 34.511719 30.808594 36.800781 31.511719 C 39.800781 32.429688 43.660156 23.019531 44.558594 20.710938 C 44.679688 20.40625 44.972656 20.207031 45.300781 20.210938 L 53.851562 20.210938 C 54.117188 20.210938 54.371094 20.34375 54.519531 20.566406 C 54.667969 20.789062 54.695312 21.074219 54.589844 21.320312 C 52.828125 25.335938 50.71875 29.191406 48.28125 32.839844 C 47.851562 33.460938 47.917969 34.296875 48.441406 34.839844 C 51 37.578125 58 45.339844 54 45.339844 L 45.371094 45.339844 C 44.917969 45.339844 44.488281 45.148438 44.191406 44.808594 C 42.851562 43.328125 38.949219 39.210938 37.191406 39.539062 C 35.730469 39.808594 35.589844 42.289062 35.660156 43.910156 C 35.707031 44.78125 35.046875 45.527344 34.179688 45.589844 C 32.648438 45.679688 30.558594 45.71875 30.371094 45.710938 C 24.269531 45.320312 20.660156 41.25 17.210938 36.710938 C 13.597656 31.898438 10.777344 26.535156 8.859375 20.828125 C 8.78125 20.585938 8.820312 20.316406 8.972656 20.109375 C 9.121094 19.898438 9.363281 19.773438 9.621094 19.769531 Z M 9.621094 19.769531 "/>
</g>
</svg>
